<svg width="22" height="22" viewBox="0 0 22 22" fill="none" xmlns="http://www.w3.org/2000/svg">
<g id="icon/navigation/close_24px">
<path id="icon/navigation/close_24px_2" d="M16.775 5.23416C16.6038 5.06251 16.3713 4.96605 16.1288 4.96605C15.8863 4.96605 15.6538 5.06251 15.4825 5.23416L11 9.70749L6.51753 5.22499C6.34627 5.05334 6.11376 4.95688 5.87128 4.95688C5.62881 4.95688 5.3963 5.05334 5.22503 5.22499C4.86753 5.58249 4.86753 6.15999 5.22503 6.51749L9.70753 11L5.22503 15.4825C4.86753 15.84 4.86753 16.4175 5.22503 16.775C5.58253 17.1325 6.16003 17.1325 6.51753 16.775L11 12.2925L15.4825 16.775C15.84 17.1325 16.4175 17.1325 16.775 16.775C17.1325 16.4175 17.1325 15.84 16.775 15.4825L12.2925 11L16.775 6.51749C17.1234 6.16916 17.1234 5.58249 16.775 5.23416Z" fill="#403D39" stroke="#403D39"/>
</g>
</svg>
